<svg width="162" height="44" viewBox="0 0 162 44" fill="none" xmlns="http://www.w3.org/2000/svg">
<path d="M103.47 22.1251C103.47 34.1236 93.7627 43.8308 81.7642 43.8308C69.7658 43.8308 60.0585 34.1236 60.0585 22.1251C60.0585 10.1266 69.7658 0.419357 81.7642 0.419357C93.7627 0.419357 103.47 10.1266 103.47 22.1251ZM139.823 0.419357C127.824 0.419357 118.117 10.1266 118.117 22.1251C118.117 34.1236 127.824 43.8308 139.823 43.8308C151.821 43.8308 161.528 34.1236 161.528 22.1251C161.528 10.1266 151.821 0.419357 139.823 0.419357ZM21.7057 0.419357C9.70729 0.419357 0 10.1266 0 22.1251C0 34.1236 9.70729 43.8308 21.7057 43.8308C33.7042 43.8308 43.4115 34.1236 43.4115 22.1251C43.4115 10.1266 33.7042 0.419357 21.7057 0.419357Z" fill="#E8E9EB"/>
</svg>
