<svg width="510px" height="510px" viewBox="0 0 510 510" version="1.1" xmlns:xlink="http://www.w3.org/1999/xlink"
  xmlns="http://www.w3.org/2000/svg">
  <g id="SvgMenuDotsWithClose">
    <path d="M0 0L510 0L510 510L0 510L0 0Z" id="SvgMenuDotsWithClose" fill="none" fill-rule="evenodd" stroke="none" />
    <path
      d="M435.484 385.663L304.884 255.063L435.484 124.463C449.584 110.363 449.584 87.6627 435.484 73.5627C421.384 59.4627 398.684 59.4627 384.584 73.5627L253.984 204.163L123.384 73.5627C109.284 59.4627 86.5841 59.4627 72.4841 73.5627C58.3841 87.6627 58.3841 110.363 72.4841 124.463L203.084 255.063L72.4841 385.663C58.3841 399.763 58.3841 422.463 72.4841 436.563C86.5841 450.663 109.284 450.663 123.384 436.563L253.984 305.963L384.584 436.563C398.684 450.663 421.384 450.663 435.484 436.563C449.484 422.463 449.484 399.663 435.484 385.663L435.484 385.663L435.484 385.663Z"
      id="white-menu-close" fill="#E8E9EB" fill-rule="evenodd" stroke="none" />
    <path
      d="M323.418 254.881C323.418 291.7 293.63 321.487 256.811 321.487C219.993 321.487 190.205 291.7 190.205 254.881C190.205 218.062 219.993 188.275 256.811 188.275C293.63 188.275 323.418 218.062 323.418 254.881L323.418 254.881L323.418 254.881ZM434.971 188.275C398.15 188.275 368.364 218.062 368.364 254.881C368.364 291.7 398.15 321.487 434.971 321.487C471.788 321.487 501.575 291.7 501.575 254.881C501.575 218.062 471.788 188.275 434.971 188.275L434.971 188.275L434.971 188.275ZM72.5153 188.275C35.6969 188.275 5.90906 218.062 5.90906 254.881C5.90906 291.7 35.6969 321.487 72.5153 321.487C109.334 321.487 139.122 291.7 139.122 254.881C139.122 218.062 109.334 188.275 72.5153 188.275L72.5153 188.275L72.5153 188.275Z"
      id="white-menu-dots" fill="#E8E9EB" fill-rule="evenodd" stroke="none" />
  </g>
</svg>