<svg width="446" height="439" viewBox="0 0 446 439" fill="none" xmlns="http://www.w3.org/2000/svg">
    <path
        d="M227.36 274.548C299.121 274.548 357.28 216.38 357.28 144.609C357.28 72.8388 299.121 14.671 227.36 14.671C155.6 14.671 97.4405 72.8388 97.4405 144.609C97.4405 216.38 155.6 274.548 227.36 274.548Z"
        fill="#121416"
        stroke="#E8E9EB"
        stroke-width="14"
        stroke-linejoin="round" />
    <path
        d="M318.304 274.548H301.353C278.82 284.903 253.75 290.791 227.36 290.791C200.97 290.791 176.001 284.903 153.366 274.548H136.416C61.1028 274.548 0 335.66 0 410.984V453.214C0 480.115 21.8225 501.94 48.72 501.94H406C432.897 501.94 454.72 480.115 454.72 453.214V410.984C454.72 335.66 393.617 274.548 318.304 274.548Z"
        fill="#121416" />
    <path
        d="M37.7573 371.409C37.2257 371.409 36.96 371.297 36.96 371.073C36.96 370.933 37.1838 370.15 37.6314 368.723C38.079 367.296 38.5546 365.884 39.0582 364.485L39.7716 362.429C39.9115 361.925 40.0933 361.561 40.3171 361.338H59.9566H63.7334C64.6286 361.338 65.1602 361.351 65.328 361.379C65.4959 361.407 65.5938 361.533 65.6218 361.757C65.6218 361.925 65.384 363.52 64.9084 366.541C64.4328 369.563 64.167 371.087 64.1111 371.115C64.1111 371.311 63.8453 371.409 63.3137 371.409C63.062 371.409 62.8941 371.409 62.8102 371.409C62.7262 371.409 62.6423 371.339 62.5584 371.199L62.4744 371.073C62.4744 370.905 62.5584 370.276 62.7262 369.185C62.8941 368.094 62.978 367.241 62.978 366.625C62.978 365.646 62.7962 364.905 62.4325 364.401C62.0688 363.897 61.2994 363.548 60.1244 363.352C59.9845 363.324 59.1732 363.296 57.6905 363.268C56.4036 363.268 55.5923 363.282 55.2565 363.31C54.9208 363.338 54.669 363.45 54.5012 363.646C54.4732 363.674 53.48 367.576 51.5217 375.354C49.5633 383.131 48.5842 387.09 48.5842 387.23C48.5842 387.565 49.8151 387.761 52.277 387.817C53.1723 387.817 53.7458 387.831 53.9976 387.859C54.2494 387.887 54.3753 388.013 54.3753 388.237C54.3753 388.377 54.3333 388.573 54.2494 388.824C54.1375 389.328 54.0116 389.622 53.8717 389.706L53.7878 389.748C53.7038 389.748 53.6059 389.748 53.494 389.748C53.3541 389.748 52.6268 389.734 51.3119 389.706C49.997 389.678 48.1086 389.664 45.6466 389.664C42.0377 389.664 39.7436 389.692 38.7644 389.748H38.135C37.9671 389.58 37.8832 389.454 37.8832 389.37C37.8832 389.286 37.9112 389.034 37.9671 388.615C38.079 388.251 38.2189 387.985 38.3868 387.817H39.5618H40.0234C42.2615 387.817 43.5904 387.691 44.01 387.44C44.038 387.412 44.066 387.398 44.0939 387.398C44.2338 387.314 44.3737 387.034 44.5136 386.558C44.6535 386.083 45.213 383.886 46.1922 379.97C46.6678 378.067 47.0594 376.515 47.3672 375.312C49.3255 367.618 50.3047 363.688 50.3047 363.52C50.3047 363.38 49.8991 363.31 49.0877 363.31H47.7868C45.9124 363.31 44.6815 363.394 44.0939 363.562C42.835 363.841 41.8558 364.415 41.1564 365.282C40.457 366.149 39.7016 367.772 38.8903 370.15C38.6945 370.766 38.5546 371.129 38.4707 371.241C38.3868 371.353 38.1909 371.409 37.8832 371.409H37.7573Z"
        fill="#E8E9EB" />
    <path
        d="M71.3708 361.086C71.3988 361.086 72.406 361.016 74.3923 360.876C76.3786 360.736 77.3998 360.652 77.4557 360.624C77.7914 360.624 77.9593 360.75 77.9593 361.002C77.9593 361.309 77.4557 363.422 76.4486 367.338C75.3855 371.479 74.8539 373.591 74.8539 373.675C74.8539 373.731 74.9518 373.661 75.1477 373.465C76.8542 371.954 78.6727 371.199 80.6031 371.199C82.1138 371.199 83.3308 371.577 84.254 372.332C85.1772 373.087 85.6528 374.192 85.6808 375.647C85.6808 377.074 85.1492 379.284 84.0861 382.278C83.023 385.271 82.4915 387.062 82.4915 387.649C82.5194 388.041 82.5894 388.307 82.7013 388.446C82.8132 388.586 83.023 388.656 83.3308 388.656C84.1141 388.656 84.8415 388.237 85.5129 387.397C86.1844 386.558 86.7299 385.411 87.1495 383.956C87.2335 383.649 87.3174 383.467 87.4013 383.411C87.4853 383.355 87.7091 383.327 88.0728 383.327C88.6323 383.327 88.9121 383.439 88.9121 383.663C88.9121 383.69 88.8561 383.9 88.7442 384.292C88.2966 385.943 87.5832 387.299 86.604 388.363C85.6528 389.566 84.5198 390.167 83.2049 390.167H82.995C81.6801 390.167 80.7289 389.789 80.1414 389.034C79.5539 388.279 79.2602 387.481 79.2602 386.642C79.2602 386.194 79.7638 384.544 80.7709 381.69C81.7781 378.837 82.2956 376.696 82.3236 375.27C82.3236 373.619 81.7081 372.794 80.4772 372.794H80.2673C77.9453 372.794 75.931 374.165 74.2244 376.906L73.9307 377.452L72.5039 383.117C71.6086 386.754 71.0911 388.74 70.9512 389.076C70.5875 389.831 69.972 390.209 69.1047 390.209C68.7131 390.209 68.3774 390.083 68.0976 389.831C67.8178 389.58 67.664 389.328 67.636 389.076C67.636 388.684 68.6571 384.432 70.6994 376.319L73.8048 363.897C73.8048 363.533 73.7069 363.31 73.511 363.226C73.3152 363.142 72.7697 363.072 71.8744 363.016H70.9932C70.8253 362.848 70.7414 362.736 70.7414 362.68C70.7414 362.624 70.7693 362.358 70.8253 361.883C70.9652 361.351 71.147 361.086 71.3708 361.086Z"
        fill="#E8E9EB" />
    <path
        d="M91.4299 382.697C91.4299 381.103 91.6957 379.648 92.2273 378.333C92.7588 377.018 93.4442 375.927 94.2835 375.06C95.1228 374.192 96.06 373.465 97.0952 372.878C98.1303 372.29 99.1095 371.856 100.033 371.577C100.956 371.297 101.837 371.171 102.676 371.199H102.802C104.061 371.199 105.152 371.507 106.076 372.122C106.999 372.738 107.46 373.647 107.46 374.85C107.46 377.368 105.908 379.018 102.802 379.802C101.432 380.165 99.5571 380.361 97.1791 380.389C96.144 380.389 95.6124 380.417 95.5844 380.473C95.5844 380.529 95.5005 381.019 95.3326 381.942C95.1648 382.865 95.0669 383.676 95.0389 384.376C95.0389 385.691 95.3326 386.726 95.9201 387.481C96.5077 388.237 97.3889 388.628 98.5639 388.656C99.7389 388.684 101.04 388.418 102.467 387.859C103.893 387.299 105.18 386.376 106.327 385.089C106.579 384.81 106.747 384.67 106.831 384.67C106.943 384.67 107.125 384.796 107.376 385.047C107.628 385.299 107.768 385.495 107.796 385.635C107.824 385.775 107.698 385.999 107.418 386.306C107.139 386.614 106.719 386.992 106.16 387.439C105.6 387.887 104.957 388.321 104.229 388.74C103.502 389.16 102.62 389.51 101.585 389.789C100.55 390.069 99.4871 390.209 98.3961 390.209C96.1859 390.209 94.4794 389.468 93.2764 387.985C92.0734 386.502 91.4579 384.74 91.4299 382.697ZM105.446 374.934C105.278 373.479 104.327 372.752 102.593 372.752C101.669 372.752 100.816 372.948 100.033 373.339C99.2493 373.731 98.6199 374.206 98.1443 374.766C97.6687 375.326 97.263 375.899 96.9273 376.487C96.5916 377.074 96.3678 377.578 96.2559 377.997C96.144 378.417 96.074 378.683 96.046 378.795C96.046 378.823 96.3258 378.837 96.8853 378.837C100.047 378.837 102.257 378.501 103.516 377.829C104.775 377.158 105.418 376.193 105.446 374.934Z"
        fill="#E8E9EB" />
    <path
        d="M124.33 363.016C123.379 363.016 122.875 362.96 122.819 362.848C122.791 362.792 122.777 362.68 122.777 362.512C122.777 361.841 122.931 361.379 123.239 361.128C123.295 361.1 123.533 361.086 123.952 361.086C125.099 361.142 127.002 361.17 129.66 361.17C130.611 361.17 131.492 361.17 132.303 361.17C133.115 361.17 133.744 361.156 134.192 361.128C134.639 361.1 134.919 361.1 135.031 361.128C135.479 361.128 135.703 361.267 135.703 361.547C135.703 361.603 135.675 361.799 135.619 362.135C135.479 362.61 135.339 362.89 135.199 362.974H135.115C135.059 362.974 134.989 362.974 134.905 362.974C134.821 362.974 134.723 362.974 134.611 362.974C134.5 362.974 134.374 362.988 134.234 363.016C134.094 363.044 133.968 363.044 133.856 363.016C132.765 363.044 132.066 363.086 131.758 363.142C131.45 363.198 131.198 363.352 131.003 363.603C130.975 363.659 130.583 365.128 129.827 368.01C129.072 370.891 128.317 373.913 127.561 377.074C126.806 380.235 126.386 382.096 126.302 382.655C126.247 383.047 126.219 383.453 126.219 383.872C126.219 385.383 126.652 386.572 127.519 387.439C128.387 388.307 129.59 388.74 131.128 388.74C133.003 388.74 134.877 388.111 136.752 386.852C138.626 385.593 139.997 383.691 140.864 381.145L143.004 372.71C144.319 367.338 144.977 364.541 144.977 364.317C144.977 363.562 144.081 363.128 142.291 363.016C141.62 363.016 141.284 362.862 141.284 362.554C141.284 362.498 141.312 362.331 141.368 362.051C141.48 361.603 141.564 361.337 141.62 361.253C141.676 361.17 141.815 361.114 142.039 361.086C142.123 361.086 142.571 361.1 143.382 361.128C144.193 361.156 145.368 361.184 146.907 361.211C148.334 361.211 149.425 361.198 150.18 361.17C150.936 361.142 151.341 361.128 151.397 361.128C151.817 361.128 152.027 361.267 152.027 361.547C152.027 362.163 151.915 362.582 151.691 362.806C151.607 362.946 151.299 363.016 150.768 363.016C148.782 363.128 147.537 363.687 147.033 364.695C146.977 364.834 146.278 367.534 144.935 372.794C143.788 377.522 143.088 380.305 142.837 381.145C141.913 383.942 140.305 386.222 138.011 387.985C135.717 389.747 133.339 390.643 130.877 390.671C128.303 390.671 126.247 389.887 124.708 388.321C123.169 386.754 122.386 384.894 122.358 382.739V382.068C122.358 381.564 123.127 378.235 124.666 372.08C126.037 366.457 126.722 363.562 126.722 363.394C126.722 363.198 125.925 363.072 124.33 363.016Z"
        fill="#E8E9EB" />
    <path
        d="M157.524 377.62C157.524 376.725 157.748 375.815 158.196 374.892C158.643 373.969 159.427 373.116 160.546 372.332C161.665 371.549 163.022 371.171 164.616 371.199C166.351 371.199 167.61 371.577 168.393 372.332C169.176 373.088 169.582 373.927 169.61 374.85C169.61 375.745 169.372 376.403 168.897 376.822C168.421 377.242 167.889 377.466 167.302 377.494C166.938 377.494 166.603 377.382 166.295 377.158C165.987 376.934 165.819 376.571 165.791 376.067C165.791 375.62 165.917 375.228 166.169 374.892C166.421 374.556 166.659 374.305 166.882 374.137C167.106 373.969 167.288 373.885 167.428 373.885C167.456 373.885 167.47 373.871 167.47 373.843C167.47 373.759 167.372 373.633 167.176 373.465C166.98 373.297 166.631 373.144 166.127 373.004C165.623 372.864 165.078 372.78 164.49 372.752C163.147 372.752 162.168 373.116 161.553 373.843C160.937 374.57 160.616 375.312 160.588 376.067C160.588 376.767 160.853 377.256 161.385 377.536C161.917 377.816 162.686 378.053 163.693 378.249C164.7 378.445 165.428 378.655 165.875 378.879C167.722 379.69 168.645 381.033 168.645 382.907C168.645 383.691 168.491 384.474 168.183 385.257C167.875 386.041 167.414 386.824 166.798 387.607C166.183 388.391 165.302 389.006 164.155 389.454C163.008 389.901 161.693 390.139 160.21 390.167C158.056 390.167 156.531 389.762 155.636 388.95C154.741 388.139 154.279 387.188 154.251 386.097C154.251 385.006 154.545 384.222 155.132 383.747C155.72 383.271 156.335 383.033 156.979 383.033C157.398 383.033 157.79 383.159 158.154 383.411C158.517 383.663 158.713 384.096 158.741 384.712C158.741 385.439 158.489 386.055 157.986 386.558C157.482 387.062 157.049 387.314 156.685 387.314C156.629 387.342 156.587 387.356 156.559 387.356C156.531 387.356 156.517 387.384 156.517 387.44C156.545 387.523 156.657 387.635 156.853 387.775C157.049 387.915 157.482 388.097 158.154 388.321C158.825 388.545 159.594 388.643 160.462 388.615C161.469 388.615 162.336 388.461 163.064 388.153C163.791 387.845 164.322 387.454 164.658 386.978C164.994 386.502 165.232 386.069 165.372 385.677C165.511 385.285 165.581 384.936 165.581 384.628C165.581 383.845 165.288 383.257 164.7 382.865C164.113 382.474 163.441 382.236 162.686 382.152C161.931 382.068 161.105 381.858 160.21 381.523C159.315 381.187 158.657 380.697 158.238 380.054C157.762 379.354 157.524 378.543 157.524 377.62Z"
        fill="#E8E9EB" />
    <path
        d="M173.345 382.697C173.345 381.103 173.611 379.648 174.142 378.333C174.674 377.018 175.359 375.927 176.198 375.06C177.038 374.192 177.975 373.465 179.01 372.878C180.045 372.29 181.024 371.856 181.948 371.577C182.871 371.297 183.752 371.171 184.591 371.199H184.717C185.976 371.199 187.067 371.507 187.991 372.122C188.914 372.738 189.375 373.647 189.375 374.85C189.375 377.368 187.823 379.018 184.717 379.802C183.346 380.165 181.472 380.361 179.094 380.389C178.059 380.389 177.527 380.417 177.499 380.473C177.499 380.529 177.415 381.019 177.248 381.942C177.08 382.865 176.982 383.676 176.954 384.376C176.954 385.691 177.248 386.726 177.835 387.481C178.423 388.237 179.304 388.628 180.479 388.656C181.654 388.684 182.955 388.418 184.382 387.859C185.808 387.299 187.095 386.376 188.242 385.089C188.494 384.81 188.662 384.67 188.746 384.67C188.858 384.67 189.04 384.796 189.291 385.047C189.543 385.299 189.683 385.495 189.711 385.635C189.739 385.775 189.613 385.999 189.333 386.306C189.054 386.614 188.634 386.992 188.074 387.439C187.515 387.887 186.871 388.321 186.144 388.74C185.417 389.16 184.535 389.51 183.5 389.789C182.465 390.069 181.402 390.209 180.311 390.209C178.101 390.209 176.394 389.468 175.191 387.985C173.988 386.502 173.373 384.74 173.345 382.697ZM187.361 374.934C187.193 373.479 186.242 372.752 184.507 372.752C183.584 372.752 182.731 372.948 181.948 373.339C181.164 373.731 180.535 374.206 180.059 374.766C179.584 375.326 179.178 375.899 178.842 376.487C178.506 377.074 178.283 377.578 178.171 377.997C178.059 378.417 177.989 378.683 177.961 378.795C177.961 378.823 178.241 378.837 178.8 378.837C181.962 378.837 184.172 378.501 185.431 377.829C186.69 377.158 187.333 376.193 187.361 374.934Z"
        fill="#E8E9EB" />
    <path
        d="M192.145 377.704C192.173 377.62 192.201 377.508 192.229 377.368C192.257 377.228 192.327 376.92 192.439 376.445C192.551 375.969 192.691 375.535 192.858 375.144C193.026 374.752 193.236 374.29 193.488 373.759C193.74 373.227 194.019 372.808 194.327 372.5C194.635 372.192 194.999 371.884 195.418 371.577C195.838 371.269 196.3 371.143 196.803 371.199C197.614 371.199 198.328 371.367 198.943 371.703C199.559 372.038 199.992 372.346 200.244 372.626C200.496 372.906 200.65 373.185 200.706 373.465C200.762 373.633 200.804 373.717 200.832 373.717C200.86 373.717 200.972 373.619 201.167 373.423C202.51 371.968 204.063 371.241 205.825 371.241H205.951C207.294 371.241 208.301 371.814 208.973 372.962C209.197 373.493 209.309 374.011 209.309 374.514C209.309 375.354 209.127 376.025 208.763 376.529C208.399 377.032 208.036 377.354 207.672 377.494C207.308 377.634 206.959 377.69 206.623 377.662C206.063 377.662 205.616 377.508 205.28 377.2C204.944 376.892 204.776 376.487 204.776 375.983C204.776 374.64 205.56 373.745 207.126 373.297C206.511 372.934 206.007 372.752 205.616 372.752C204.049 372.752 202.608 373.787 201.293 375.857C201.014 376.305 200.804 376.766 200.664 377.242C200.524 377.718 200.048 379.578 199.237 382.823C198.286 386.74 197.74 388.824 197.6 389.076C197.237 389.831 196.635 390.209 195.796 390.209C195.432 390.209 195.138 390.125 194.915 389.957C194.691 389.789 194.537 389.621 194.453 389.454C194.369 389.286 194.341 389.146 194.369 389.034C194.369 388.67 194.929 386.264 196.048 381.816C197.167 377.368 197.726 374.892 197.726 374.388C197.726 373.297 197.363 372.752 196.635 372.752C196.048 372.752 195.544 373.143 195.125 373.927C194.705 374.71 194.369 375.563 194.117 376.487C193.866 377.41 193.712 377.913 193.656 377.997C193.6 378.053 193.376 378.081 192.984 378.081H192.397C192.229 377.913 192.145 377.787 192.145 377.704Z"
        fill="#E8E9EB" />
    <path
        d="M232.641 363.394C232.641 363.198 231.843 363.072 230.249 363.016C229.605 363.016 229.186 363.002 228.99 362.974C228.794 362.946 228.696 362.82 228.696 362.596C228.696 362.54 228.724 362.345 228.78 362.009C228.948 361.449 229.088 361.156 229.2 361.128C229.256 361.1 229.41 361.086 229.661 361.086H229.871C231.018 361.142 232.921 361.17 235.578 361.17C236.53 361.17 237.411 361.17 238.222 361.17C239.033 361.17 239.663 361.156 240.111 361.128C240.558 361.1 240.838 361.1 240.95 361.128C241.425 361.128 241.663 361.24 241.663 361.463C241.663 361.603 241.621 361.799 241.537 362.051C241.509 362.107 241.495 362.191 241.495 362.303C241.495 362.415 241.481 362.499 241.453 362.554C241.425 362.61 241.397 362.666 241.369 362.722C241.341 362.778 241.3 362.82 241.244 362.848C241.188 362.876 241.132 362.904 241.076 362.932C241.02 362.96 240.922 362.974 240.782 362.974C240.642 362.974 240.516 362.988 240.404 363.016C240.292 363.044 240.097 363.044 239.817 363.016C238.698 363.044 237.984 363.086 237.677 363.142C237.369 363.198 237.117 363.352 236.921 363.604L233.522 376.948C233.55 376.948 236.124 374.934 241.244 370.905C246.363 366.877 248.993 364.807 249.133 364.695C249.525 364.303 249.72 363.981 249.72 363.729C249.72 363.31 249.371 363.072 248.671 363.016C248.224 363.016 248 362.862 248 362.554C248 362.499 248.042 362.303 248.126 361.967C248.21 361.631 248.28 361.421 248.336 361.338C248.42 361.198 248.657 361.128 249.049 361.128C249.161 361.128 249.65 361.142 250.518 361.17C251.385 361.198 252.504 361.212 253.875 361.212C254.518 361.212 255.19 361.198 255.889 361.17C256.589 361.142 257.008 361.128 257.148 361.128C257.708 361.128 257.987 361.268 257.987 361.547C257.987 362.163 257.876 362.582 257.652 362.806C257.568 362.946 257.302 363.016 256.854 363.016C254.756 363.156 252.854 363.869 251.147 365.156C250.7 365.436 249.72 366.163 248.21 367.338C246.699 368.513 245.3 369.619 244.013 370.654L242.041 372.206L242.419 373.13C242.67 373.745 243.062 374.682 243.594 375.941C244.125 377.2 244.615 378.389 245.062 379.508C247.161 384.46 248.28 387.02 248.42 387.188C248.475 387.244 248.545 387.3 248.629 387.356C249.021 387.635 249.734 387.789 250.77 387.817H251.651C251.819 388.041 251.903 388.167 251.903 388.195C251.903 388.223 251.861 388.475 251.777 388.95C251.665 389.314 251.525 389.58 251.357 389.748H250.895C249.776 389.664 248.447 389.622 246.909 389.622C243.496 389.622 241.579 389.664 241.16 389.748H240.74C240.572 389.58 240.488 389.454 240.488 389.37C240.488 389.286 240.516 389.034 240.572 388.615C240.684 388.251 240.768 388.027 240.824 387.943C240.88 387.859 241.034 387.817 241.286 387.817H241.411C242.81 387.817 243.51 387.467 243.51 386.768C243.51 386.656 243.132 385.677 242.377 383.831C241.621 381.984 241.174 380.935 241.034 380.683L238.6 374.892L235.746 377.116L232.893 379.34L231.927 383.243C231.284 385.817 230.962 387.174 230.962 387.314C230.962 387.509 231.074 387.635 231.298 387.691C231.522 387.747 232.221 387.789 233.396 387.817H234.697C234.865 388.069 234.949 388.223 234.949 388.279C234.949 388.726 234.851 389.146 234.655 389.538C234.515 389.678 234.291 389.748 233.984 389.748C233.9 389.748 233.382 389.734 232.431 389.706C231.48 389.678 230.081 389.664 228.235 389.664C226.5 389.664 225.171 389.664 224.248 389.664C223.325 389.664 222.821 389.678 222.737 389.706C222.234 389.706 221.982 389.566 221.982 389.286C221.982 389.23 222.024 389.034 222.108 388.698C222.22 388.251 222.332 387.999 222.443 387.943C222.555 387.887 222.877 387.845 223.409 387.817C224.164 387.817 225.003 387.775 225.926 387.691C226.318 387.607 226.584 387.44 226.724 387.188C226.808 387.076 227.815 383.187 229.745 375.522C231.676 367.856 232.641 363.813 232.641 363.394Z"
        fill="#E8E9EB" />
    <path
        d="M258.869 377.704C258.897 377.536 258.939 377.312 258.995 377.032C259.051 376.752 259.218 376.221 259.498 375.437C259.778 374.654 260.058 373.997 260.338 373.465C260.617 372.934 261.079 372.416 261.722 371.912C262.366 371.409 263.009 371.171 263.653 371.199C264.66 371.199 265.499 371.451 266.171 371.954C266.842 372.458 267.262 372.934 267.43 373.381C267.597 373.829 267.681 374.123 267.681 374.262C267.681 374.318 267.695 374.346 267.723 374.346L268.185 373.885C269.891 372.094 271.836 371.199 274.018 371.199C275.529 371.199 276.746 371.577 277.669 372.332C278.592 373.087 279.068 374.192 279.096 375.647C279.124 377.102 278.592 379.298 277.501 382.236C276.41 385.173 275.878 386.95 275.906 387.565C275.906 388.293 276.144 388.656 276.62 388.656C276.788 388.656 276.914 388.642 276.997 388.614C277.809 388.474 278.536 387.943 279.18 387.02C279.823 386.096 280.313 384.977 280.648 383.663C280.704 383.439 280.984 383.327 281.488 383.327C282.047 383.327 282.327 383.439 282.327 383.663C282.327 383.69 282.271 383.9 282.159 384.292C281.935 385.103 281.628 385.901 281.236 386.684C280.844 387.467 280.201 388.251 279.306 389.034C278.41 389.817 277.445 390.195 276.41 390.167C275.095 390.167 274.144 389.789 273.556 389.034C272.969 388.279 272.675 387.495 272.675 386.684C272.675 386.152 273.179 384.474 274.186 381.648C275.193 378.823 275.711 376.696 275.739 375.27C275.739 373.619 275.123 372.794 273.892 372.794H273.682C271.276 372.794 269.248 374.206 267.597 377.032L267.304 377.536L265.919 383.159C264.996 386.824 264.464 388.796 264.324 389.076C263.96 389.831 263.359 390.209 262.52 390.209C262.156 390.209 261.862 390.125 261.638 389.957C261.415 389.789 261.261 389.621 261.177 389.454C261.093 389.286 261.065 389.146 261.093 389.034C261.093 388.67 261.624 386.39 262.688 382.194C263.751 377.997 264.31 375.717 264.366 375.354C264.394 375.214 264.408 374.892 264.408 374.388C264.408 373.297 264.072 372.752 263.401 372.752C262.338 372.752 261.457 374.151 260.757 376.948C260.589 377.508 260.505 377.801 260.505 377.829C260.449 377.997 260.184 378.081 259.708 378.081H259.121C258.953 377.913 258.869 377.787 258.869 377.704Z"
        fill="#E8E9EB" />
    <path
        d="M291.601 390.209C289.503 390.209 287.81 389.524 286.523 388.153C285.236 386.782 284.593 385.131 284.593 383.201C284.593 381.382 285.013 379.662 285.852 378.039C286.691 376.417 287.838 375.004 289.293 373.801C291.419 372.094 293.587 371.241 295.798 371.241C296.693 371.241 297.252 371.255 297.476 371.283C297.84 371.367 298.204 371.465 298.567 371.577C298.931 371.689 299.421 371.912 300.036 372.248C300.651 372.584 301.155 373.003 301.547 373.507C301.938 374.011 302.302 374.696 302.638 375.563C302.974 376.431 303.141 377.41 303.141 378.501C303.141 381.494 301.938 384.194 299.532 386.6C297.126 389.006 294.483 390.209 291.601 390.209ZM288.244 384.712C288.244 386.11 288.608 387.118 289.335 387.733C290.062 388.349 290.888 388.656 291.811 388.656C293.042 388.656 294.203 388.209 295.294 387.313C296.385 386.418 297.252 385.243 297.896 383.788C298.148 383.201 298.469 382.166 298.861 380.683C299.253 379.2 299.448 377.913 299.448 376.822C299.448 375.591 299.197 374.654 298.693 374.011C298.022 373.171 297.126 372.752 296.007 372.752C294.245 372.752 292.692 373.563 291.349 375.186C290.314 376.417 289.545 378.053 289.041 380.096C288.538 382.138 288.272 383.676 288.244 384.712Z"
        fill="#E8E9EB" />
    <path
        d="M327.859 373.591C327.859 373.003 328.124 372.458 328.656 371.954C329.187 371.451 329.775 371.185 330.418 371.157C330.922 371.157 331.384 371.409 331.803 371.912C332.223 372.416 332.447 373.213 332.475 374.304C332.475 375.116 332.209 376.724 331.677 379.13C331.258 380.697 330.88 381.984 330.544 382.991C330.209 383.998 329.719 385.131 329.076 386.39C328.432 387.649 327.663 388.6 326.768 389.244C325.872 389.887 324.865 390.209 323.746 390.209C322.515 390.209 321.424 389.985 320.473 389.538C319.522 389.09 318.836 388.488 318.417 387.733C318.389 387.761 318.347 387.817 318.291 387.901C317.144 389.44 315.745 390.209 314.094 390.209C313.367 390.209 312.667 390.125 311.996 389.957C311.325 389.789 310.667 389.524 310.024 389.16C309.38 388.796 308.863 388.251 308.471 387.523C308.079 386.796 307.883 385.915 307.883 384.879C307.883 383.369 308.359 381.326 309.31 378.753C310.261 376.179 310.751 374.542 310.779 373.843C310.779 373.815 310.779 373.787 310.779 373.759C310.779 373.507 310.779 373.339 310.779 373.255C310.779 373.171 310.723 373.073 310.611 372.962C310.499 372.85 310.345 372.794 310.15 372.794H309.982C309.338 372.794 308.751 373.059 308.219 373.591C307.688 374.123 307.268 374.696 306.96 375.312C306.652 375.927 306.415 376.515 306.247 377.074C306.079 377.634 305.967 377.941 305.911 377.997C305.855 378.053 305.631 378.081 305.24 378.081H304.652C304.484 377.913 304.4 377.787 304.4 377.704C304.4 377.536 304.512 377.144 304.736 376.529C304.96 375.913 305.282 375.2 305.701 374.388C306.121 373.577 306.736 372.85 307.548 372.206C308.359 371.563 309.268 371.241 310.275 371.241C311.478 371.241 312.402 371.591 313.045 372.29C313.689 372.99 314.01 373.801 314.01 374.724C314.01 375.228 313.549 376.738 312.625 379.256C311.702 381.774 311.241 383.718 311.241 385.089C311.241 386.376 311.534 387.285 312.122 387.817C312.709 388.349 313.451 388.628 314.346 388.656C315.549 388.656 316.612 387.803 317.535 386.096L317.745 385.719V384.754C317.745 384.67 317.745 384.544 317.745 384.376C317.745 384.208 317.759 384.096 317.787 384.04C317.815 383.984 317.829 383.886 317.829 383.746C317.829 383.607 317.843 383.481 317.871 383.369C317.899 383.257 317.941 383.075 317.997 382.823C318.053 382.571 318.095 382.334 318.123 382.11C318.151 381.886 318.235 381.55 318.375 381.103C318.514 380.655 318.626 380.207 318.71 379.76C318.794 379.312 318.948 378.711 319.172 377.955C319.983 374.766 320.445 373.045 320.557 372.794C320.92 372.038 321.522 371.661 322.361 371.661C322.893 371.661 323.256 371.801 323.452 372.08C323.648 372.36 323.76 372.626 323.788 372.878C323.788 373.241 323.382 375.032 322.571 378.249C321.76 381.466 321.312 383.313 321.228 383.788C321.172 384.096 321.144 384.586 321.144 385.257V385.551C321.144 385.971 321.186 386.376 321.27 386.768C321.354 387.16 321.62 387.565 322.067 387.985C322.515 388.405 323.145 388.628 323.956 388.656C325.942 388.656 327.523 386.95 328.698 383.537C328.95 382.893 329.229 381.984 329.537 380.809C329.845 379.634 330.013 378.795 330.041 378.291C330.041 377.368 329.859 376.64 329.495 376.109C329.132 375.577 328.768 375.13 328.404 374.766C328.04 374.402 327.859 374.011 327.859 373.591Z"
        fill="#E8E9EB" />
    <path
        d="M339.063 377.62C339.063 376.725 339.287 375.815 339.734 374.892C340.182 373.969 340.965 373.116 342.084 372.332C343.204 371.549 344.56 371.171 346.155 371.199C347.89 371.199 349.149 371.577 349.932 372.332C350.715 373.088 351.121 373.927 351.149 374.85C351.149 375.745 350.911 376.403 350.435 376.822C349.96 377.242 349.428 377.466 348.841 377.494C348.477 377.494 348.141 377.382 347.834 377.158C347.526 376.934 347.358 376.571 347.33 376.067C347.33 375.62 347.456 375.228 347.708 374.892C347.96 374.556 348.197 374.305 348.421 374.137C348.645 373.969 348.827 373.885 348.967 373.885C348.995 373.885 349.009 373.871 349.009 373.843C349.009 373.759 348.911 373.633 348.715 373.465C348.519 373.297 348.169 373.144 347.666 373.004C347.162 372.864 346.617 372.78 346.029 372.752C344.686 372.752 343.707 373.116 343.092 373.843C342.476 374.57 342.154 375.312 342.126 376.067C342.126 376.767 342.392 377.256 342.924 377.536C343.455 377.816 344.225 378.053 345.232 378.249C346.239 378.445 346.966 378.655 347.414 378.879C349.26 379.69 350.184 381.033 350.184 382.907C350.184 383.691 350.03 384.474 349.722 385.257C349.414 386.041 348.953 386.824 348.337 387.607C347.722 388.391 346.84 389.006 345.693 389.454C344.546 389.901 343.232 390.139 341.749 390.167C339.595 390.167 338.07 389.762 337.175 388.95C336.279 388.139 335.818 387.188 335.79 386.097C335.79 385.006 336.084 384.222 336.671 383.747C337.259 383.271 337.874 383.033 338.517 383.033C338.937 383.033 339.329 383.159 339.693 383.411C340.056 383.663 340.252 384.096 340.28 384.712C340.28 385.439 340.028 386.055 339.525 386.558C339.021 387.062 338.587 387.314 338.224 387.314C338.168 387.342 338.126 387.356 338.098 387.356C338.07 387.356 338.056 387.384 338.056 387.44C338.084 387.523 338.196 387.635 338.392 387.775C338.587 387.915 339.021 388.097 339.693 388.321C340.364 388.545 341.133 388.643 342.001 388.615C343.008 388.615 343.875 388.461 344.602 388.153C345.33 387.845 345.861 387.454 346.197 386.978C346.533 386.502 346.771 386.069 346.91 385.677C347.05 385.285 347.12 384.936 347.12 384.628C347.12 383.845 346.826 383.257 346.239 382.865C345.651 382.474 344.98 382.236 344.225 382.152C343.469 382.068 342.644 381.858 341.749 381.523C340.854 381.187 340.196 380.697 339.776 380.054C339.301 379.354 339.063 378.543 339.063 377.62Z"
        fill="#E8E9EB" />
    <path
        d="M372.467 386.642C372.467 387.314 373.11 387.705 374.397 387.817C374.901 387.817 375.153 387.971 375.153 388.279C375.153 388.307 375.125 388.489 375.069 388.824C374.985 389.216 374.901 389.468 374.817 389.58C374.733 389.692 374.551 389.748 374.271 389.748C374.215 389.748 374.048 389.748 373.768 389.748C373.488 389.748 373.012 389.734 372.341 389.706C371.67 389.678 370.774 389.664 369.655 389.664C367.669 389.664 366.396 389.692 365.837 389.748H365.501C365.305 389.552 365.207 389.398 365.207 389.286C365.263 388.531 365.445 388.041 365.753 387.817H366.34C368.298 387.733 369.725 387.034 370.62 385.719C370.788 385.551 373.32 381.285 378.216 372.92C383.112 364.555 385.602 360.316 385.686 360.204C385.882 359.869 386.217 359.701 386.693 359.701H387.029H387.742C387.91 359.953 387.994 360.093 387.994 360.121L389.169 373.675C389.952 382.711 390.372 387.272 390.428 387.356C390.568 387.663 391.477 387.817 393.155 387.817C393.855 387.817 394.205 387.957 394.205 388.237C394.205 388.293 394.163 388.489 394.079 388.824C393.995 389.244 393.925 389.496 393.869 389.58C393.813 389.664 393.617 389.72 393.281 389.748C393.197 389.748 393.002 389.748 392.694 389.748C392.386 389.748 391.841 389.734 391.057 389.706C390.274 389.678 389.253 389.664 387.994 389.664C385.364 389.664 383.643 389.692 382.832 389.748H382.329C382.161 389.58 382.077 389.454 382.077 389.37C382.077 389.286 382.105 389.034 382.161 388.615C382.273 388.251 382.357 388.027 382.413 387.943L382.58 387.817H383.42C384.93 387.733 385.826 387.495 386.105 387.104L385.602 380.809H375.614L374.187 383.243C373.04 385.173 372.467 386.306 372.467 386.642ZM385.392 378.837C385.392 378.529 385.224 376.347 384.888 372.29C384.553 368.234 384.357 366.191 384.301 366.163L383.168 367.968C382.72 368.723 381.839 370.22 380.524 372.458L376.747 378.837L381.07 378.879C383.951 378.879 385.392 378.865 385.392 378.837Z"
        fill="#E8E9EB" />
    <path
        d="M400.122 387.272C400.122 388.195 400.471 388.657 401.171 388.657C402.206 388.657 403.087 387.188 403.814 384.25C403.982 383.691 404.122 383.397 404.234 383.369C404.29 383.341 404.43 383.327 404.654 383.327H404.822C405.073 383.327 405.241 383.327 405.325 383.327C405.409 383.327 405.479 383.355 405.535 383.411C405.591 383.467 405.619 383.565 405.619 383.705C405.591 383.873 405.549 384.097 405.493 384.376C405.437 384.656 405.283 385.188 405.031 385.971C404.78 386.754 404.5 387.412 404.192 387.943C403.884 388.475 403.451 388.992 402.891 389.496C402.332 390 401.688 390.237 400.961 390.209C399.954 390.209 399.017 389.902 398.149 389.286C397.282 388.671 396.834 387.636 396.806 386.181C396.806 385.845 396.82 385.607 396.848 385.467L399.576 374.641C401.339 367.507 402.22 363.828 402.22 363.604C402.22 363.52 402.206 363.45 402.178 363.394C402.15 363.338 402.094 363.282 402.01 363.226C401.926 363.17 401.856 363.142 401.8 363.142C401.744 363.142 401.632 363.128 401.464 363.1C401.297 363.072 401.185 363.058 401.129 363.058C401.073 363.058 400.947 363.044 400.751 363.016C400.555 362.988 400.415 362.988 400.331 363.016C400.052 363.016 399.87 363.016 399.786 363.016C399.702 363.016 399.59 363.002 399.45 362.974C399.31 362.946 399.226 362.904 399.198 362.849C399.17 362.793 399.156 362.709 399.156 362.597C399.156 362.541 399.184 362.345 399.24 362.009C399.38 361.478 399.534 361.184 399.702 361.128C399.87 361.072 400.877 360.988 402.723 360.876C403.143 360.848 403.619 360.82 404.15 360.792C404.682 360.764 405.101 360.722 405.409 360.666C405.717 360.61 405.871 360.596 405.871 360.624C406.206 360.624 406.374 360.736 406.374 360.96C406.374 361.268 405.353 365.464 403.311 373.55C401.269 381.635 400.22 385.873 400.164 386.265C400.164 386.321 400.164 386.433 400.164 386.601C400.164 386.768 400.15 386.908 400.122 387.02V387.272Z"
        fill="#E8E9EB" />
    <path
        d="M412.627 387.272C412.627 388.195 412.977 388.657 413.676 388.657C414.711 388.657 415.593 387.188 416.32 384.25C416.488 383.691 416.628 383.397 416.74 383.369C416.796 383.341 416.936 383.327 417.159 383.327H417.327C417.579 383.327 417.747 383.327 417.831 383.327C417.915 383.327 417.985 383.355 418.041 383.411C418.097 383.467 418.125 383.565 418.125 383.705C418.097 383.873 418.055 384.097 417.999 384.376C417.943 384.656 417.789 385.188 417.537 385.971C417.285 386.754 417.006 387.412 416.698 387.943C416.39 388.475 415.956 388.992 415.397 389.496C414.837 390 414.194 390.237 413.467 390.209C412.459 390.209 411.522 389.902 410.655 389.286C409.788 388.671 409.34 387.636 409.312 386.181C409.312 385.845 409.326 385.607 409.354 385.467L412.082 374.641C413.844 367.507 414.725 363.828 414.725 363.604C414.725 363.52 414.711 363.45 414.683 363.394C414.656 363.338 414.6 363.282 414.516 363.226C414.432 363.17 414.362 363.142 414.306 363.142C414.25 363.142 414.138 363.128 413.97 363.1C413.802 363.072 413.69 363.058 413.634 363.058C413.578 363.058 413.453 363.044 413.257 363.016C413.061 362.988 412.921 362.988 412.837 363.016C412.557 363.016 412.375 363.016 412.291 363.016C412.208 363.016 412.096 363.002 411.956 362.974C411.816 362.946 411.732 362.904 411.704 362.849C411.676 362.793 411.662 362.709 411.662 362.597C411.662 362.541 411.69 362.345 411.746 362.009C411.886 361.478 412.04 361.184 412.208 361.128C412.375 361.072 413.383 360.988 415.229 360.876C415.649 360.848 416.124 360.82 416.656 360.792C417.187 360.764 417.607 360.722 417.915 360.666C418.222 360.61 418.376 360.596 418.376 360.624C418.712 360.624 418.88 360.736 418.88 360.96C418.88 361.268 417.859 365.464 415.817 373.55C413.774 381.635 412.725 385.873 412.669 386.265C412.669 386.321 412.669 386.433 412.669 386.601C412.669 386.768 412.655 386.908 412.627 387.02V387.272Z"
        fill="#E8E9EB" />
</svg>