<svg width="346" height="210" viewBox="0 0 346 210" fill="none" xmlns="http://www.w3.org/2000/svg">
<path d="M4.25763 92.7293C4.25763 99.9835 9.18531 104.465 17.8815 104.465C35.3031 104.465 45.7394 92.0027 45.7394 71.3949V15.6653C45.7394 10.1512 47.9148 5.36213 53.8644 3.18391V1.46047H20.4923V3.18391C26.0176 5.21654 28.6353 9.5702 28.6353 15.6653V80.5376C28.6353 90.8422 24.5645 99.4053 18.0257 99.4053C17.302 99.4053 16.4312 98.8244 17.1564 97.9536C18.4611 96.502 19.4746 94.7605 19.4746 92.7293C19.4746 88.5198 15.9973 85.0369 11.7947 85.0369C7.59081 85.0369 4.25763 88.5198 4.25763 92.7293Z" fill="#E8E9EB"/>
<path d="M124.232 101.279C119.59 99.2496 115.962 94.3163 114.22 87.3519L91.5758 0H80.5281L56.1531 88.3668C54.2772 95.0415 51.2462 99.9747 46.6292 101.711V103.004H69.9157V101.135C63.8095 98.9598 61.6382 95.4769 63.5183 88.2212L70.6422 61.3783C79.6546 62.6844 93.7568 77.0487 96.082 87.9314C97.0983 92.7205 97.8249 98.9598 90.5581 101.135V103.004H124.232V101.279ZM80.6723 23.5056L91.4302 68.1972C87.2152 62.8286 79.0736 57.7498 72.2409 55.2832L80.6723 23.5056Z" fill="#E8E9EB"/>
<path d="M192.593 88.3728C187.956 74.1486 178.822 40.929 164.878 40.929C164.297 40.929 163.716 40.929 163.135 41.0732C171.705 31.3468 180.275 21.0395 185.782 15.0885C191.434 8.99064 196.797 5.07096 201.579 3.33088V1.46047H176.498V3.33088C182.739 5.50632 180.709 10.4423 174.9 17.5565C169.817 23.7986 159.358 35.7019 155.581 40.0583V18.1361C155.581 12.1838 161.101 4.63559 165.023 3.47369V1.46047H128.611V3.47369L130.062 4.05464C134.85 6.08727 138.042 11.6042 138.042 18.1361V86.3416C138.042 93.8884 134.705 98.3876 128.611 101.001V103.014H165.014V101.001C159.21 98.5332 155.581 94.1795 155.581 81.9865V50.7788C155.581 49.7625 156.162 48.021 158.048 48.021C170.528 48.021 160.37 105.916 190.986 105.916C198.967 105.916 203.901 101.864 204.626 100.126V98.2434C198.971 98.2434 195.202 96.3564 192.593 88.3728Z" fill="#E8E9EB"/>
<path d="M235.251 0C214.785 0 198.115 23.3461 198.115 52.2273C198.115 81.1084 214.785 104.455 235.251 104.455C255.863 104.455 272.388 81.1084 272.388 52.2273C272.388 23.3461 255.863 0 235.251 0ZM235.251 98.9598C225.09 98.9598 216.959 78.0608 216.959 52.2273C216.959 26.3937 225.09 5.49615 235.251 5.49615C245.413 5.49615 253.688 26.3937 253.688 52.2273C253.688 78.0608 245.413 98.9598 235.251 98.9598Z" fill="#E8E9EB"/>
<path d="M319.998 45.2785C329.128 42.8147 334.637 34.1046 334.637 25.2489C334.637 12.328 327.244 1.46047 312.594 1.46047H276.035V3.48617C281.839 5.80027 285.466 10.2953 285.466 18.1347V86.3416C285.466 93.019 282.709 98.2406 276.035 100.989V103.014H308.236C325.511 103.014 340.732 91.8571 340.732 73.1322C340.732 59.6331 333.773 47.1586 319.998 45.2785ZM302.859 43.9752V7.39199H307.51C311.868 7.39199 316.518 13.1987 316.518 25.5387C316.518 32.6515 313.903 43.9752 304.749 43.9752H302.859ZM308.234 97.0829H302.859V50.0523H307.944C315.786 50.0523 322.612 59.4875 322.612 73.422C322.612 87.5035 317.674 97.0829 308.234 97.0829Z" fill="#E8E9EB"/>
<path d="M25.6186 110.221C32.9048 110.221 38.1514 117.795 43.2524 127.262H44.6902V109.35C41.5026 106.738 33.9253 104.851 25.4731 104.851C11.4914 104.851 0 111.969 0 129.011C0 137.895 7.70903 148.82 17.1665 159.016C26.4963 169.067 34.2234 179.846 34.2234 189.751C34.2234 201.986 25.767 204.462 21.9763 204.462C12.8017 204.462 5.23687 195.868 2.90891 184.362L0.872118 184.507V204.897C4.9457 207.801 13.5282 209.686 21.9763 209.686C36.1146 209.686 51.3884 200.53 51.3884 182.322C51.3884 169.358 43.5338 157.56 31.8899 146.636C22.8512 138.187 16.7283 130.03 16.7283 120.999C16.7283 114.591 20.5177 110.221 25.6186 110.221Z" fill="#E8E9EB"/>
<path d="M141.244 191.503V122.607C141.244 115.032 143.138 110.663 149.691 108.333V106.311H126.116L107.325 154.797L86.6378 106.311H58.3987V108.333C65.2439 110.954 67.1365 116.198 67.1365 123.044V191.503C67.1365 198.204 64.0778 203.593 57.234 206.215V208.235H83.2866V206.215C77.6061 204.03 73.527 200.243 73.527 191.503V123.918L100.624 184.949H102.079L124.807 126.831V191.503C124.807 198.058 122.33 203.593 115.628 206.215V208.235H150.128V206.215C145.031 203.884 141.244 199.514 141.244 191.503Z" fill="#E8E9EB"/>
<path d="M155.971 208.235H192.506V206.215C186.681 203.739 183.04 199.368 183.04 191.503V123.044C183.04 115.47 186.39 110.954 192.506 108.333V106.311H155.971V108.333C161.796 110.809 165.437 115.179 165.437 123.044V191.503C165.437 199.077 162.087 203.593 155.971 206.215V208.235Z" fill="#E8E9EB"/>
<path d="M210.281 208.235H251.206V206.215C243.335 203.593 239.545 198.495 239.545 191.503V112.265H243.773C252.226 112.265 256.307 116.925 261.262 128.87H263.138V106.311H198.35V128.87H200.225C205.035 117.216 208.97 112.265 217.716 112.265H221.942V191.503C221.942 198.204 218.444 203.448 210.281 206.215V208.235Z" fill="#E8E9EB"/>
<path d="M312.371 208.235H346V206.215C340.028 203.737 337.99 199.076 337.99 191.501V123.048C337.99 116.2 339.3 110.954 346 108.333V106.311H312.371V108.333C318.2 110.663 320.532 115.181 320.532 123.048V147.525H294.447V123.048C294.447 115.472 296.34 110.809 302.608 108.333V106.311H268.979V108.333C274.658 110.663 276.989 115.181 276.989 123.048V191.501C276.989 198.202 275.679 203.446 268.979 206.215V208.235H302.608V206.215C296.779 203.737 294.447 199.221 294.447 191.501V153.478H320.532V191.501C320.532 198.494 318.93 203.446 312.371 206.215V208.235Z" fill="#E8E9EB"/>
</svg>
